<?xml version="1.0" encoding="UTF-8"?>
<svg width="640px" height="500px" viewBox="0 0 640 500" version="1.1" xmlns="http://www.w3.org/2000/svg" xmlns:xlink="http://www.w3.org/1999/xlink">
    <!-- Generator: Sketch 42 (36781) - http://www.bohemiancoding.com/sketch -->
    <title>gif-creator</title>
    <desc>Created with Sketch.</desc>
    <defs>
        <rect id="path-1" x="0" y="0" width="590" height="332"></rect>
    </defs>
    <g id="Page-1" stroke="none" stroke-width="1" fill="none" fill-rule="evenodd">
        <g id="gif-creator">
            <g id="imac">
                <path d="M389.264,491.125 L383.304,442 L256.696,442 L250.736,491.127 C250.657,491.781 250.16,492.307 249.511,492.423 L224,497 L249.636,497 L390.364,497 L416,497 L390.49,492.424 C389.841,492.307 389.343,491.781 389.264,491.125 Z" id="stand" fill="#EEEEEE" fill-rule="nonzero"></path>
                <path d="M414.609,500 L225.391,500 C224.623,500 224,499.508 224,498.739 L224,497 L416,497 L416,498.739 C416,499.508 415.377,500 414.609,500 Z" id="base" fill="#E0E0E0" fill-rule="nonzero"></path>
                <g id="screen-shadow" transform="translate(245.000000, 442.000000)" fill-rule="nonzero" fill="#000000" opacity="0.02">
                    <rect id="Rectangle-path" x="0" y="0" width="150" height="10"></rect>
                </g>
                <path d="M640,383 L0,383 L0,13.913 C0,6.261 6.261,0 13.913,0 L626.087,0 C633.739,0 640,6.261 640,13.913 L640,383 Z" id="screen-upper" fill="#BDBDBD" fill-rule="nonzero"></path>
                <path d="M640,383 L0,383 L0,428.522 C0,436.174 6.261,442 13.913,442 L626.087,442 C633.739,442 640,436.174 640,428.522 L640,383 Z" id="screen-lower" fill="#F5F5F5" fill-rule="nonzero"></path>
                <g id="screen-matte" transform="translate(25.000000, 26.000000)">
                    <mask id="mask-2" fill="white">
                        <use xlink:href="#path-1"></use>
                    </mask>
                    <use id="screen-mask" fill="#EBEEF5" fill-rule="nonzero" xlink:href="#path-1"></use>
                    <rect id="screen-inner" fill="#EBEEF5" fill-rule="nonzero" mask="url(#mask-2)" x="0" y="0" width="590" height="332"></rect>
                    <g id="gif-creator-modal" mask="url(#mask-2)">
                        <g transform="translate(103.000000, 0.000000)">
                            <rect id="screen-inner_1_" fill="#FFFFFF" fill-rule="nonzero" x="0" y="0" width="384" height="398"></rect>
                            <g id="gif-creator" stroke-width="1" fill="none" fill-rule="evenodd" transform="translate(14.400000, 246.951807)">
                                <rect id="Rectangle-path" fill="#E0E0E0" fill-rule="nonzero" x="0" y="7.19277108" width="26.4" height="7.19277108"></rect>
                                <rect id="Rectangle-path" fill="#E0E0E0" fill-rule="nonzero" x="0" y="29.9698795" width="16.8" height="7.19277108"></rect>
                                <rect id="Rectangle-path" fill="#E0E0E0" fill-rule="nonzero" x="0" y="74.3253012" width="25.2" height="7.19277108"></rect>
                                <rect id="Rectangle-path" fill="#E0E0E0" fill-rule="nonzero" x="0" y="100.698795" width="20.4" height="7.19277108"></rect>
                                <path d="M258,31.1686747 L258,64.7349398 L164.4,64.7349398 L164.4,31.1686747 L258,31.1686747 L258,31.1686747 Z M259.2,29.9698795 L258,29.9698795 L164.4,29.9698795 L163.2,29.9698795 L163.2,31.1686747 L163.2,64.7349398 L163.2,65.9337349 L164.4,65.9337349 L258,65.9337349 L259.2,65.9337349 L259.2,64.7349398 L259.2,31.1686747 L259.2,29.9698795 L259.2,29.9698795 Z" id="Shape" fill="#FF9800" fill-rule="nonzero"></path>
                                <path d="M163.2,31.1686747 L163.2,64.7349398 L70.8,64.7349398 C69.48,64.7349398 68.4,63.6560241 68.4,62.3373494 L68.4,33.5662651 C68.4,32.2475904 69.48,31.1686747 70.8,31.1686747 L163.2,31.1686747 L163.2,31.1686747 Z M164.4,29.9698795 L163.2,29.9698795 L70.8,29.9698795 C68.8152,29.9698795 67.2,31.5834578 67.2,33.5662651 L67.2,62.3373494 C67.2,64.3201566 68.8152,65.9337349 70.8,65.9337349 L163.2,65.9337349 L164.4,65.9337349 L164.4,64.7349398 L164.4,31.1686747 L164.4,29.9698795 L164.4,29.9698795 Z" id="Shape" fill="#FF9800" fill-rule="nonzero"></path>
                                <g id="Group" transform="translate(258.000000, 29.969880)" fill-rule="nonzero" fill="#FF9800">
                                    <path d="M0.6,35.3644578 L0.6,0.59939759 L93.6,0.59939759 C95.2548,0.59939759 96.6,1.94444578 96.6,3.59638554 L96.6,32.3674699 C96.6,34.0194096 95.2548,35.3644578 93.6,35.3644578 L0.6,35.3644578 Z" id="Shape"></path>
                                    <path d="M93.6,1.19879518 C94.92,1.19879518 96,2.27771084 96,3.59638554 L96,32.3674699 C96,33.6861446 94.92,34.7650602 93.6,34.7650602 L1.2,34.7650602 L1.2,1.19879518 L93.6,1.19879518 L93.6,1.19879518 Z M93.6,0 L1.2,0 L0,0 L0,1.19879518 L0,34.7650602 L0,35.9638554 L1.2,35.9638554 L93.6,35.9638554 C95.5848,35.9638554 97.2,34.3502771 97.2,32.3674699 L97.2,3.59638554 C97.2,1.61357831 95.5848,0 93.6,0 L93.6,0 Z" id="Shape"></path>
                                </g>
                                <path d="M258,75.5240964 L258,91.1084337 L164.4,91.1084337 L164.4,75.5240964 L258,75.5240964 L258,75.5240964 Z M259.2,74.3253012 L258,74.3253012 L164.4,74.3253012 L163.2,74.3253012 L163.2,75.5240964 L163.2,91.1084337 L163.2,92.3072289 L164.4,92.3072289 L258,92.3072289 L259.2,92.3072289 L259.2,91.1084337 L259.2,75.5240964 L259.2,74.3253012 L259.2,74.3253012 Z" id="Shape" fill="#FF9800" fill-rule="nonzero"></path>
                                <g id="Group" transform="translate(67.200000, 74.325301)" fill-rule="nonzero" fill="#FF9800">
                                    <path d="M3.6,17.3825301 C1.9464,17.3825301 0.6,16.0374819 0.6,14.3855422 L0.6,3.59638554 C0.6,1.94444578 1.9464,0.59939759 3.6,0.59939759 L96.6,0.59939759 L96.6,17.3825301 L3.6,17.3825301 Z" id="Shape"></path>
                                    <path d="M96,1.19879518 L96,16.7831325 L3.6,16.7831325 C2.28,16.7831325 1.2,15.7042169 1.2,14.3855422 L1.2,3.59638554 C1.2,2.27771084 2.28,1.19879518 3.6,1.19879518 L96,1.19879518 L96,1.19879518 Z M97.2,0 L96,0 L3.6,0 C1.6152,0 0,1.61357831 0,3.59638554 L0,14.3855422 C0,16.3683494 1.6152,17.9819277 3.6,17.9819277 L96,17.9819277 L97.2,17.9819277 L97.2,16.7831325 L97.2,1.19879518 L97.2,0 L97.2,0 Z" id="Shape"></path>
                                </g>
                                <path d="M351.6,75.5240964 C352.92,75.5240964 354,76.603012 354,77.9216867 L354,88.7108434 C354,90.0295181 352.92,91.1084337 351.6,91.1084337 L259.2,91.1084337 L259.2,75.5240964 L351.6,75.5240964 L351.6,75.5240964 Z M351.6,74.3253012 L259.2,74.3253012 L258,74.3253012 L258,75.5240964 L258,91.1084337 L258,92.3072289 L259.2,92.3072289 L351.6,92.3072289 C353.5848,92.3072289 355.2,90.6936506 355.2,88.7108434 L355.2,77.9216867 C355.2,75.9388795 353.5848,74.3253012 351.6,74.3253012 L351.6,74.3253012 Z" id="Shape" fill="#FF9800" fill-rule="nonzero"></path>
                                <g id="Group" transform="translate(140.400000, 100.698795)" fill-rule="nonzero" fill="#FF9800">
                                    <rect id="Rectangle-path" x="0.6" y="0.59939759" width="72" height="16.7831325"></rect>
                                    <path d="M72,1.19879518 L72,16.7831325 L1.2,16.7831325 L1.2,1.19879518 L72,1.19879518 L72,1.19879518 Z M73.2,0 L72,0 L1.2,0 L0,0 L0,1.19879518 L0,16.7831325 L0,17.9819277 L1.2,17.9819277 L72,17.9819277 L73.2,17.9819277 L73.2,16.7831325 L73.2,1.19879518 L73.2,0 L73.2,0 Z" id="Shape"></path>
                                </g>
                                <path d="M140.4,101.89759 L140.4,117.481928 L70.8,117.481928 C69.48,117.481928 68.4,116.403012 68.4,115.084337 L68.4,104.295181 C68.4,102.976506 69.48,101.89759 70.8,101.89759 L140.4,101.89759 L140.4,101.89759 Z M141.6,100.698795 L140.4,100.698795 L70.8,100.698795 C68.8152,100.698795 67.2,102.312373 67.2,104.295181 L67.2,115.084337 C67.2,117.067145 68.8152,118.680723 70.8,118.680723 L140.4,118.680723 L141.6,118.680723 L141.6,117.481928 L141.6,101.89759 L141.6,100.698795 L141.6,100.698795 Z" id="Shape" fill="#FF9800" fill-rule="nonzero"></path>
                                <path d="M351.6,101.89759 C352.92,101.89759 354,102.976506 354,104.295181 L354,115.084337 C354,116.403012 352.92,117.481928 351.6,117.481928 L283.2,117.481928 L283.2,101.89759 L351.6,101.89759 L351.6,101.89759 Z M351.6,100.698795 L283.2,100.698795 L282,100.698795 L282,101.89759 L282,117.481928 L282,118.680723 L283.2,118.680723 L351.6,118.680723 C353.5848,118.680723 355.2,117.067145 355.2,115.084337 L355.2,104.295181 C355.2,102.312373 353.5848,100.698795 351.6,100.698795 L351.6,100.698795 Z" id="Shape" fill="#FF9800" fill-rule="nonzero"></path>
                                <path d="M282,101.89759 L282,117.481928 L212.4,117.481928 L212.4,101.89759 L282,101.89759 L282,101.89759 Z M283.2,100.698795 L282,100.698795 L212.4,100.698795 L211.2,100.698795 L211.2,101.89759 L211.2,117.481928 L211.2,118.680723 L212.4,118.680723 L282,118.680723 L283.2,118.680723 L283.2,117.481928 L283.2,101.89759 L283.2,100.698795 L283.2,100.698795 Z" id="Shape" fill="#FF9800" fill-rule="nonzero"></path>
                                <path d="M350.4,14.3855422 L72,14.3855422 C69.36,14.3855422 67.2,12.2277108 67.2,9.59036145 L67.2,9.59036145 C67.2,6.95301205 69.36,4.79518072 72,4.79518072 L350.4,4.79518072 C353.04,4.79518072 355.2,6.95301205 355.2,9.59036145 L355.2,9.59036145 C355.2,12.2277108 353.04,14.3855422 350.4,14.3855422 Z" id="Shape" fill="#E0E0E0" fill-rule="nonzero"></path>
                                <ellipse id="Oval" fill="#FF9800" fill-rule="nonzero" cx="76.8" cy="9.59036145" rx="9.6" ry="9.59036145"></ellipse>
                                <ellipse id="Oval" fill="#FF9800" fill-rule="nonzero" cx="345.6" cy="9.59036145" rx="9.6" ry="9.59036145"></ellipse>
                            </g>
                            <g id="video-matte" stroke-width="1" fill="none" fill-rule="evenodd">
                                <rect id="Rectangle-path" fill="#D8D8D8" x="0" y="0" width="384" height="215.783133"></rect>
                            </g>
                        </g>
                    </g>
                </g>
                <path d="M12.033,0 C5.387,0 0,5.387 0,12.033 L0,429.967 C0,436.613 5.387,442 12.033,442 L99,442 L541,0 L12.033,0 Z" id="shadow" fill="#000000" fill-rule="nonzero" opacity="0.02"></path>
            </g>
            <g id="me-logo" transform="translate(301.000000, 402.000000)" fill-rule="nonzero" fill="#BDBDBD">
                <g id="Group">
                    <polygon id="Shape" points="0.638 0 0.638 20 18.409 20 18.409 16.047 5.013 16.047 5.013 3.96 14.03 3.96 14.03 10.703 10.931 10.703 10.931 9.301 12.474 9.301 12.474 5.348 6.553 5.348 6.553 14.655 18.414 14.655 18.405 0.006"></polygon>
                    <polygon id="Shape" points="19.587 14.655 31.448 14.655 31.448 5.348 25.526 5.348 25.526 9.301 27.07 9.301 27.07 10.703 23.97 10.703 23.97 3.96 32.988 3.96 32.988 16.047 19.591 16.047 19.591 20 37.362 20 37.362 0 19.595 0.006"></polygon>
                </g>
            </g>
        </g>
    </g>
</svg>